<svg width="38" height="38" viewBox="0 0 38 38" fill="none" xmlns="http://www.w3.org/2000/svg">
<path fill-rule="evenodd" clip-rule="evenodd" d="M33.25 11.875H4.75V33.25C4.75 33.8799 5.00022 34.484 5.44562 34.9294C5.89102 35.3748 6.49511 35.625 7.125 35.625H30.875C31.5049 35.625 32.109 35.3748 32.5544 34.9294C32.9998 34.484 33.25 33.8799 33.25 33.25V11.875ZM2.375 9.5V33.25C2.375 34.5098 2.87545 35.718 3.76624 36.6088C4.65704 37.4996 5.86522 38 7.125 38H30.875C32.1348 38 33.343 37.4996 34.2338 36.6088C35.1246 35.718 35.625 34.5098 35.625 33.25V9.5H2.375Z" fill="white"/>
<path fill-rule="evenodd" clip-rule="evenodd" d="M33.25 11.875H4.75V33.25C4.75 33.8799 5.00022 34.484 5.44562 34.9294C5.89102 35.3748 6.49511 35.625 7.125 35.625H30.875C31.5049 35.625 32.109 35.3748 32.5544 34.9294C32.9998 34.484 33.25 33.8799 33.25 33.25V11.875ZM2.375 9.5V33.25C2.375 34.5098 2.87545 35.718 3.76624 36.6088C4.65704 37.4996 5.86522 38 7.125 38H30.875C32.1348 38 33.343 37.4996 34.2338 36.6088C35.1246 35.718 35.625 34.5098 35.625 33.25V9.5H2.375Z" fill="white"/>
<path d="M19 3.5625C17.4253 3.5625 15.9151 4.18806 14.8016 5.30155C13.6881 6.41505 13.0625 7.92528 13.0625 9.5H10.6875C10.6875 7.29539 11.5633 5.18107 13.1222 3.62217C14.6811 2.06328 16.7954 1.1875 19 1.1875C21.2046 1.1875 23.3189 2.06328 24.8778 3.62217C26.4367 5.18107 27.3125 7.29539 27.3125 9.5H24.9375C24.9375 7.92528 24.3119 6.41505 23.1984 5.30155C22.0849 4.18806 20.5747 3.5625 19 3.5625V3.5625Z" fill="white"/>
</svg>
